<svg version="1.1" id="Layer_1" xmlns="http://www.w3.org/2000/svg" xmlns:xlink="http://www.w3.org/1999/xlink" x="0px" y="0px"
	 width="100%" viewBox="0 0 512 512" enable-background="new 0 0 512 512" xml:space="preserve">
<path fill="#FFFFFF" opacity="1.000000" stroke="none" 
	d="
M300.000000,513.000000 
	C201.357285,513.000000 103.214539,512.980652 5.071937,513.084534 
	C1.806167,513.088013 0.894325,512.645203 0.896843,509.073730 
	C1.015267,341.114777 1.016708,173.155746 0.892397,5.196835 
	C0.889622,1.447673 1.837790,0.912781 5.301220,0.914793 
	C173.093567,1.012254 340.885956,1.011398 508.678314,0.919482 
	C512.086365,0.917615 513.114685,1.370550 513.111755,5.176348 
	C512.982422,173.135269 512.985229,341.094299 513.100830,509.053253 
	C513.103271,512.582825 512.258545,513.094116 508.948486,513.088562 
	C439.465820,512.971436 369.982880,513.000000 300.000000,513.000000 
z"/>
<path fill="#020202" opacity="1.000000" stroke="none" 
	d="
M209.999634,438.400269 
	C185.847092,438.400269 162.194077,438.323914 138.542603,438.481934 
	C134.956879,438.505890 133.746674,437.851349 133.812134,433.915192 
	C134.080688,417.762634 134.023926,401.601929 133.842407,385.446960 
	C133.804993,382.115814 134.757401,381.306458 138.005112,381.310211 
	C214.126144,381.398224 290.247375,381.412628 366.368317,381.282196 
	C370.379395,381.275299 370.927277,382.666748 370.888519,386.164520 
	C370.713257,401.986450 370.655212,417.814026 370.919312,433.633484 
	C370.987549,437.722137 369.692688,438.489838 365.906433,438.481079 
	C314.104370,438.361206 262.301971,438.400269 209.999634,438.400269 
z"/>
<path fill="#020202" opacity="1.000000" stroke="none" 
	d="
M133.924942,55.999878 
	C133.924957,45.337818 134.068085,35.172562 133.844193,25.015392 
	C133.769882,21.643446 134.478851,20.556726 138.117645,20.562363 
	C214.249939,20.680294 290.382477,20.676134 366.514832,20.573763 
	C370.083160,20.568964 370.924133,21.643862 370.887756,25.062796 
	C370.715942,41.220379 370.723297,57.381680 370.885101,73.539467 
	C370.917572,76.780022 370.098083,77.781708 366.754303,77.777740 
	C290.455353,77.687233 214.156219,77.681023 137.857315,77.793785 
	C134.316818,77.799019 133.756500,76.538803 133.866486,73.490044 
	C134.070541,67.833290 133.924957,62.163937 133.924942,55.999878 
z"/>
<path fill="#020202" opacity="1.000000" stroke="none" 
	d="
M263.000000,491.971039 
	C236.344086,491.971039 210.187393,491.872986 184.033066,492.077240 
	C180.133453,492.107727 179.357132,490.975403 179.466492,487.356506 
	C179.733063,478.534851 179.689209,469.696503 179.480896,460.871704 
	C179.406784,457.732330 180.409637,457.015564 183.432831,457.021790 
	C229.413742,457.116730 275.395020,457.127716 321.375793,457.004303 
	C324.685455,456.995392 325.145691,458.150452 325.094727,461.004242 
	C324.934082,469.997681 324.873474,479.000183 325.119659,487.989777 
	C325.211273,491.334320 324.169647,492.069458 320.975800,492.044708 
	C301.818176,491.896179 282.658783,491.971039 263.000000,491.971039 
z"/>
<path fill="#060606" opacity="1.000000" stroke="none" 
	d="
M162.936295,175.999969 
	C162.936295,150.667511 163.032776,125.834312 162.837875,101.003387 
	C162.806717,97.032852 163.867111,95.710419 167.780823,96.152313 
	C172.203125,96.651611 177.991455,94.336060 180.772476,97.056610 
	C183.579086,99.802200 181.637817,105.594894 181.640686,110.040009 
	C181.693878,192.370377 181.630661,274.700897 181.801437,357.030975 
	C181.811676,361.970337 180.475662,363.519470 175.728973,362.876190 
	C171.651367,362.323578 166.268967,364.600067 163.718811,362.025757 
	C161.174606,359.457489 162.975342,354.111511 162.971634,349.993835 
	C162.919571,292.162567 162.936295,234.331284 162.936295,175.999969 
z"/>
<path fill="#050505" opacity="1.000000" stroke="none" 
	d="
M341.787598,190.000122 
	C341.787598,246.130142 341.737946,301.760284 341.885681,357.389893 
	C341.897003,361.656342 341.111603,363.457214 336.488739,362.904816 
	C332.236786,362.396790 326.463959,364.257721 323.972046,362.083099 
	C321.059998,359.541870 323.038818,353.651550 323.035614,349.230591 
	C322.975922,266.951508 323.031494,184.672302 322.888977,102.393440 
	C322.880768,97.668182 323.551300,95.264915 328.929962,96.138969 
	C332.982544,96.797546 338.322357,94.431496 340.946320,97.035629 
	C343.576447,99.645882 341.732086,104.945740 341.744843,109.053299 
	C341.828033,135.868698 341.787598,162.684464 341.787598,190.000122 
z"/>
<path fill="#060606" opacity="1.000000" stroke="none" 
	d="
M287.995483,175.719940 
	C266.048828,175.719925 244.600479,175.642990 223.153793,175.797943 
	C219.701569,175.822891 218.453812,174.948273 218.722595,171.403702 
	C219.072281,166.792068 217.202011,160.723831 219.501572,157.901840 
	C221.918625,154.935654 228.218994,157.018875 232.810669,156.998856 
	C254.923111,156.902542 277.036743,157.032684 299.148499,156.876556 
	C302.667847,156.851700 304.333008,157.382126 303.907440,161.394501 
	C303.506348,165.176025 303.734558,169.036118 303.853607,172.856430 
	C303.920990,175.018738 303.121185,175.809753 300.963074,175.751328 
	C296.809570,175.638931 292.650879,175.719452 287.995483,175.719940 
z"/>
<path fill="#010101" opacity="1.000000" stroke="none" 
	d="
M246.999847,301.264374 
	C238.351440,301.264160 230.200882,301.157806 222.055878,301.324371 
	C219.393387,301.378784 218.631271,300.524445 218.750977,297.951385 
	C218.944000,293.803009 218.912354,289.635071 218.759537,285.483368 
	C218.677597,283.256989 219.495605,282.692596 221.621445,282.697449 
	C248.062042,282.757751 274.502930,282.766327 300.943451,282.692261 
	C303.571289,282.684875 303.902679,283.904114 303.839508,286.046051 
	C303.726776,289.867493 303.586212,293.711487 303.875671,297.514221 
	C304.122803,300.761261 302.807434,301.344116 299.882019,301.323914 
	C282.422028,301.203339 264.960724,301.264343 246.999847,301.264374 
z"/>
<path fill="#060606" opacity="1.000000" stroke="none" 
	d="
M300.675323,132.813293 
	C290.245209,132.845963 280.289429,132.736099 270.338837,132.915848 
	C267.221344,132.972153 265.768677,132.323166 266.096588,128.867981 
	C266.547241,124.118874 264.170593,117.902016 266.953796,114.948471 
	C269.781769,111.947418 276.043488,114.194336 280.795624,114.060547 
	C286.763184,113.892532 292.741882,114.127411 298.709961,113.968994 
	C301.199432,113.902924 302.401093,114.463539 302.070190,117.205627 
	C301.446381,122.374596 303.171875,127.687920 300.675323,132.813293 
z"/>
<path fill="#060606" opacity="1.000000" stroke="none" 
	d="
M294.940552,342.027435 
	C286.122833,342.027252 277.797974,341.937408 269.477051,342.080292 
	C266.906067,342.124390 265.895599,341.442505 266.106842,338.748627 
	C266.494751,333.802032 264.151581,327.506500 266.966553,324.242493 
	C269.674316,321.102844 276.065948,323.447296 280.831512,323.291443 
	C286.651611,323.101105 292.492157,323.444702 298.305359,323.168274 
	C301.537811,323.014557 302.340027,324.184265 302.095276,327.144592 
	C301.862915,329.955322 302.045410,332.800354 302.045319,335.630280 
	C302.045166,342.026764 302.045135,342.026764 294.940552,342.027435 
z"/>
<path fill="#020202" opacity="1.000000" stroke="none" 
	d="
M296.769531,258.459106 
	C287.665466,258.459076 279.032135,258.283051 270.411926,258.543274 
	C266.820190,258.651672 265.830261,257.451569 266.096741,254.048874 
	C266.380859,250.420776 266.328491,246.742981 266.106049,243.106277 
	C265.939301,240.380737 267.021545,239.778198 269.529144,239.808380 
	C279.317200,239.926254 289.109741,239.970413 298.895691,239.784851 
	C301.714874,239.731400 302.188660,240.816437 302.077087,243.227341 
	C301.916229,246.704300 301.755798,250.223007 302.109894,253.671051 
	C302.515778,257.623138 301.119690,259.147675 296.769531,258.459106 
z"/>
<path fill="#020202" opacity="1.000000" stroke="none" 
	d="
M279.008911,197.694458 
	C286.001007,197.694702 292.496643,197.797394 298.986053,197.641647 
	C301.370972,197.584427 302.209198,198.223190 302.085907,200.689316 
	C301.837769,205.654083 303.674347,211.941513 301.280823,215.231415 
	C298.974213,218.401810 292.310181,216.028305 287.568298,216.185959 
	C281.747528,216.379471 275.910553,216.090668 270.090271,216.291443 
	C267.168793,216.392212 265.826447,215.764404 266.092896,212.496262 
	C266.389496,208.857635 266.371368,205.160309 266.096924,201.518173 
	C265.859863,198.372482 266.978485,197.384109 270.023224,197.643646 
	C272.833160,197.883163 275.679596,197.694519 279.008911,197.694458 
z"/>
</svg>